<svg id="visual" viewBox="0 0 900 600" width="900" height="600" xmlns="http://www.w3.org/2000/svg" xmlns:xlink="http://www.w3.org/1999/xlink" version="1.1"><rect x="0" y="0" width="900" height="600" fill="#002233"></rect><path d="M0 400L21.5 418.5C43 437 86 474 128.8 481.5C171.7 489 214.3 467 257.2 465.2C300 463.3 343 481.7 385.8 492.3C428.7 503 471.3 506 514.2 492.3C557 478.7 600 448.3 642.8 446.2C685.7 444 728.3 470 771.2 480.8C814 491.7 857 487.3 878.5 485.2L900 483L900 601L878.5 601C857 601 814 601 771.2 601C728.3 601 685.7 601 642.8 601C600 601 557 601 514.2 601C471.3 601 428.7 601 385.8 601C343 601 300 601 257.2 601C214.3 601 171.7 601 128.8 601C86 601 43 601 21.5 601L0 601Z" fill="#0066FF" stroke-linecap="round" stroke-linejoin="miter"></path></svg>